<svg width="15" height="11" viewBox="0 0 15 11" fill="none" xmlns="http://www.w3.org/2000/svg">
<path d="M5.35752 10.3777C5.24085 10.3777 5.13148 10.3594 5.02939 10.3226C4.92731 10.2864 4.83252 10.2246 4.74502 10.1371L0.982517 6.37461C0.822101 6.21419 0.745392 6.00623 0.752392 5.75073C0.759975 5.49582 0.843975 5.28815 1.00439 5.12773C1.16481 4.96732 1.36898 4.88711 1.61689 4.88711C1.86481 4.88711 2.06898 4.96732 2.22939 5.12773L5.35752 8.25586L12.7731 0.840234C12.9336 0.679818 13.1415 0.599609 13.397 0.599609C13.6519 0.599609 13.8596 0.679818 14.02 0.840234C14.1804 1.00065 14.2606 1.20832 14.2606 1.46323C14.2606 1.71873 14.1804 1.92669 14.02 2.08711L5.97002 10.1371C5.88252 10.2246 5.78773 10.2864 5.68564 10.3226C5.58356 10.3594 5.47418 10.3777 5.35752 10.3777Z" fill="white"/>
</svg>
