<svg width="24" height="24" viewBox="0 0 24 24" fill="none" xmlns="http://www.w3.org/2000/svg">
<path d="M7.71168 17.055L7.60433 16.2934C7.46972 15.3313 7.52936 14.7225 8.1334 14.2064C8.60879 13.7999 8.99814 13.4717 9.21284 13.1948C9.54084 12.7731 9.59707 12.4835 9.53743 12.0591C9.4565 11.4845 8.96832 11.1905 8.43584 11.2741C7.89144 11.3596 7.44672 11.7228 7.37685 12.2569C7.29507 12.8828 6.84523 13.2973 6.18751 13.3495C5.638 13.3971 5.0987 13.086 5.01351 12.3073C4.84737 10.776 6.23267 9.35977 8.12573 9.06394C10.0904 8.75642 11.652 9.5468 11.9519 11.6824C12.0695 12.5195 11.9758 13.1462 11.6239 13.7379C11.33 14.2307 10.8239 14.7567 10.2999 15.2467C10.0018 15.5363 9.9779 15.7952 10.0231 16.1198L10.1023 16.6818L7.71168 17.0559V17.055ZM8.98962 17.4551C9.7828 17.331 10.3264 17.7564 10.4328 18.5189C10.5393 19.2814 10.1364 19.8542 9.34404 19.9782C8.55086 20.1023 8.00901 19.6887 7.90081 18.9145C7.79261 18.1403 8.1973 17.5792 8.98962 17.4551Z" fill="black"/>
<path d="M12.9615 14.8113L13.1145 13.762C13.3075 12.4374 13.6419 11.6573 14.7368 11.2228C15.5968 10.8807 16.3004 10.6054 16.7273 10.3285C17.3784 9.90585 17.5776 9.54675 17.663 8.96152C17.7786 8.16963 17.1827 7.5827 16.3698 7.47514C15.5381 7.36504 14.7403 7.66316 14.4201 8.33986C14.0466 9.1326 13.2203 9.49678 12.2366 9.29606C11.413 9.13429 10.7495 8.50332 10.9416 7.44126C11.3196 5.35186 13.9221 4.04758 16.8136 4.42955C19.8127 4.82591 21.7783 6.50624 21.3496 9.44851C21.1815 10.6012 20.7902 11.3914 20.0342 12.0283C19.4045 12.5593 18.4492 13.0463 17.4833 13.4799C16.9301 13.7399 16.7896 14.0719 16.7237 14.5191L16.6108 15.2932L12.9606 14.8105L12.9615 14.8113ZM14.6683 15.8615C15.8788 16.0216 16.5014 16.805 16.3484 17.8552C16.1954 18.9054 15.3727 19.4974 14.1613 19.3374C12.9508 19.1773 12.3256 18.4108 12.4812 17.3437C12.6368 16.2765 13.4569 15.7015 14.6683 15.8615Z" fill="black"/>
</svg>
