<svg width="24" height="24" viewBox="0 0 24 24" fill="none" xmlns="http://www.w3.org/2000/svg">
<path d="M15.9913 9.72056C15.9913 9.92118 15.9732 10.1176 15.938 10.3104C15.5618 12.406 13.2072 14.0202 10.3587 14.0202C10.1446 14.0202 9.93335 14.0109 9.72579 13.9928C9.39498 13.965 9.07251 13.9145 8.76116 13.8446C8.69907 13.8307 8.63467 13.8483 8.5888 13.8923L7.11451 15.3152C7.06077 15.3666 6.97135 15.3314 6.96764 15.2568L6.86617 13.1899C6.86293 13.1283 6.82957 13.0727 6.77722 13.0398C6.59189 12.923 6.41722 12.7975 6.25274 12.664C5.30617 11.8954 4.72656 10.8608 4.72656 9.72149C4.72656 7.34697 7.24795 5.42188 10.3582 5.42188C12.3927 5.42188 14.1746 6.24473 15.1652 7.47902C15.6892 8.13184 15.9908 8.89956 15.9908 9.72149L15.9913 9.72056Z" fill="black"/>
<path d="M19.2832 13.794C19.2832 14.6363 18.9093 15.4123 18.281 16.0299C18.2472 16.0633 18.2263 16.1078 18.224 16.155L18.1082 18.511C18.1045 18.5856 18.0146 18.6208 17.9609 18.5694L16.5445 17.2026C16.4944 17.154 16.4217 17.1382 16.355 17.1595C15.7846 17.3425 15.1578 17.444 14.5008 17.444C12.3575 17.444 10.5436 16.3672 9.93615 14.8837C9.88843 14.7665 9.98619 14.6423 10.1117 14.659C10.4199 14.6988 10.7358 14.7192 11.0588 14.7192C14.0157 14.7192 16.4407 12.9794 16.6724 10.7666C16.6839 10.6573 16.8012 10.5906 16.9022 10.635C18.3255 11.2675 19.2827 12.4452 19.2827 13.793L19.2832 13.794Z" fill="black"/>
<path d="M7.96847 9.99749C8.12149 9.99749 8.24554 9.87344 8.24554 9.72043C8.24554 9.56741 8.12149 9.44336 7.96847 9.44336C7.81545 9.44336 7.69141 9.56741 7.69141 9.72043C7.69141 9.87344 7.81545 9.99749 7.96847 9.99749Z" fill="#FCFCFC"/>
<path d="M10.3591 9.99749C10.5121 9.99749 10.6362 9.87344 10.6362 9.72043C10.6362 9.56741 10.5121 9.44336 10.3591 9.44336C10.2061 9.44336 10.082 9.56741 10.082 9.72043C10.082 9.87344 10.2061 9.99749 10.3591 9.99749Z" fill="#FCFCFC"/>
<path d="M12.7517 9.99749C12.9047 9.99749 13.0287 9.87344 13.0287 9.72043C13.0287 9.56741 12.9047 9.44336 12.7517 9.44336C12.5987 9.44336 12.4746 9.56741 12.4746 9.72043C12.4746 9.87344 12.5987 9.99749 12.7517 9.99749Z" fill="#FCFCFC"/>
</svg>
