<svg width="24" height="24" viewBox="0 0 24 24" fill="none" xmlns="http://www.w3.org/2000/svg">
<path d="M17.6979 13.3561V17.3421C17.6979 18.2433 16.9668 18.9739 16.0652 18.9739H13.774C13.4891 18.9739 13.2579 18.7427 13.2579 18.4578V15.9707C13.2579 15.3781 12.7779 14.8981 12.1853 14.8981H11.7924C11.1998 14.8981 10.7198 15.3781 10.7198 15.9707V18.4578C10.7198 18.7427 10.4886 18.9739 10.2037 18.9739H7.91304C7.01142 18.9739 6.2803 18.2428 6.2803 17.3421V13.3561C5.30223 13.2741 4.82269 12.0792 5.51906 11.343L11.1206 5.42503C11.5927 4.92603 12.3859 4.92603 12.8576 5.42503L18.4587 11.3435C19.1555 12.0792 18.6755 13.2746 17.6974 13.3566L17.6979 13.3561Z" fill="black"/>
</svg>
