<svg width="24" height="24" viewBox="0 0 24 24" fill="none" xmlns="http://www.w3.org/2000/svg">
<path d="M11.9252 19.9227C16.2601 19.9227 19.7743 16.4086 19.7743 12.0737C19.7743 7.73875 16.2601 4.22461 11.9252 4.22461C7.59031 4.22461 4.07617 7.73875 4.07617 12.0737C4.07617 16.4086 7.59031 19.9227 11.9252 19.9227Z" fill="black"/>
<path d="M11.9247 18.7156C15.5927 18.7156 18.5662 15.7421 18.5662 12.0741C18.5662 8.40612 15.5927 5.43262 11.9247 5.43262C8.25671 5.43262 5.2832 8.40612 5.2832 12.0741C5.2832 15.7421 8.25671 18.7156 11.9247 18.7156Z" stroke="white" stroke-miterlimit="10"/>
<path d="M12.3489 11.409C12.4444 11.4361 12.574 11.4769 12.6695 11.5108C13.433 11.7889 13.9376 12.3654 13.8828 13.1998C13.8352 13.946 13.3578 14.4138 12.5602 14.5698V14.909C12.5602 15.3226 12.2672 15.5465 11.9467 15.5465C11.6261 15.5465 11.3331 15.3294 11.3331 14.909V14.5835C10.9581 14.5362 10.6172 14.4275 10.3855 14.2375C10.1332 14.0341 10.0174 13.6813 10.2084 13.3829C10.3107 13.2406 10.4948 13.1524 10.6789 13.1456C10.9039 13.1387 11.0198 13.2474 11.1425 13.315C11.2924 13.4031 11.4903 13.4913 11.9401 13.4913C12.3013 13.4913 12.4992 13.3894 12.5061 13.1048C12.513 12.8538 12.0969 12.6775 11.5516 12.5012C11.4493 12.4741 11.32 12.4199 11.238 12.3928C10.2494 11.9792 10.0381 11.0838 10.2563 10.3987C10.4131 9.89662 10.7947 9.57116 11.3334 9.42883V9.08967C11.3334 8.66922 11.6199 8.45215 11.947 8.45215C12.2741 8.45215 12.5605 8.67608 12.5605 9.08967V9.37464C12.8945 9.41544 13.099 9.50358 13.2696 9.58486C13.5695 9.75429 13.7808 10.0801 13.6787 10.3921C13.597 10.6565 13.365 10.7652 13.1196 10.7652C13.0173 10.7652 12.8742 10.7244 12.8128 10.6771C12.6629 10.5687 12.4309 10.4737 12.0356 10.4737C11.7219 10.4737 11.5447 10.5687 11.5378 10.8331C11.531 11.0841 11.8174 11.2265 12.3492 11.4096L12.3489 11.409Z" fill="white"/>
</svg>
