<svg width="24" height="24" viewBox="0 0 24 24" fill="none" xmlns="http://www.w3.org/2000/svg">
<path d="M5.8183 10.819C5.29382 11.534 5.29377 12.4702 5.81824 13.1853C6.82123 14.5527 8.85638 16.6175 12.0012 16.6175C15.146 16.6175 17.1811 14.5527 18.1841 13.1852C18.7086 12.4702 18.7086 11.534 18.1842 10.8189C17.1812 9.45146 15.146 7.38672 12.0012 7.38672C8.85644 7.38672 6.8213 9.45149 5.8183 10.819Z" stroke="#BDBDBD"/>
<path d="M12.003 14.3087C13.2775 14.3087 14.3107 13.2756 14.3107 12.0011C14.3107 10.7265 13.2775 9.69336 12.003 9.69336C10.7285 9.69336 9.69531 10.7265 9.69531 12.0011C9.69531 13.2756 10.7285 14.3087 12.003 14.3087Z" stroke="#BDBDBD"/>
</svg>
